<mxfile host="app.diagrams.net" agent="Mozilla/5.0 (Windows NT 10.0; Win64; x64) AppleWebKit/537.36 (KHTML, like Gecko) Chrome/109.0.0.0 Safari/537.36" version="24.8.1">
  <diagram name="Страница — 1" id="f-HlNVZmYPCHgbXo1SvT">
    <mxGraphModel dx="1432" dy="810" grid="1" gridSize="10" guides="1" tooltips="1" connect="1" arrows="1" fold="1" page="1" pageScale="1" pageWidth="1654" pageHeight="2336" background="none" math="0" shadow="1">
      <root>
        <mxCell id="0" />
        <mxCell id="1" parent="0" />
        <mxCell id="LHh5Y7pQnVomNMw54WkH-5" value="SPI" style="rounded=1;whiteSpace=wrap;html=1;labelBackgroundColor=none;" vertex="1" parent="1">
          <mxGeometry x="320" y="120" width="120" height="80" as="geometry" />
        </mxCell>
        <mxCell id="LHh5Y7pQnVomNMw54WkH-23" style="edgeStyle=orthogonalEdgeStyle;rounded=0;orthogonalLoop=1;jettySize=auto;html=1;" edge="1" parent="1" source="LHh5Y7pQnVomNMw54WkH-6" target="LHh5Y7pQnVomNMw54WkH-10">
          <mxGeometry relative="1" as="geometry" />
        </mxCell>
        <mxCell id="LHh5Y7pQnVomNMw54WkH-6" value="SPI" style="rounded=1;whiteSpace=wrap;html=1;labelBackgroundColor=none;" vertex="1" parent="1">
          <mxGeometry x="160" y="240" width="120" height="80" as="geometry" />
        </mxCell>
        <mxCell id="LHh5Y7pQnVomNMw54WkH-7" value="SPI" style="rounded=1;whiteSpace=wrap;html=1;labelBackgroundColor=none;" vertex="1" parent="1">
          <mxGeometry x="1040" y="960" width="120" height="80" as="geometry" />
        </mxCell>
        <mxCell id="LHh5Y7pQnVomNMw54WkH-8" value="RADIO" style="rounded=1;whiteSpace=wrap;html=1;labelBackgroundColor=none;" vertex="1" parent="1">
          <mxGeometry x="1040" y="600" width="120" height="80" as="geometry" />
        </mxCell>
        <mxCell id="LHh5Y7pQnVomNMw54WkH-10" value="SPI" style="rounded=1;whiteSpace=wrap;html=1;labelBackgroundColor=none;" vertex="1" parent="1">
          <mxGeometry x="320" y="360" width="120" height="80" as="geometry" />
        </mxCell>
        <mxCell id="LHh5Y7pQnVomNMw54WkH-22" style="edgeStyle=orthogonalEdgeStyle;rounded=0;orthogonalLoop=1;jettySize=auto;html=1;" edge="1" parent="1" source="LHh5Y7pQnVomNMw54WkH-19" target="LHh5Y7pQnVomNMw54WkH-10">
          <mxGeometry relative="1" as="geometry" />
        </mxCell>
        <mxCell id="LHh5Y7pQnVomNMw54WkH-19" value="SPI" style="rounded=1;whiteSpace=wrap;html=1;labelBackgroundColor=none;" vertex="1" parent="1">
          <mxGeometry x="320" y="480" width="120" height="80" as="geometry" />
        </mxCell>
        <mxCell id="LHh5Y7pQnVomNMw54WkH-25" value="SPI" style="rounded=1;whiteSpace=wrap;html=1;labelBackgroundColor=none;" vertex="1" parent="1">
          <mxGeometry x="1200" y="160" width="120" height="80" as="geometry" />
        </mxCell>
        <mxCell id="LHh5Y7pQnVomNMw54WkH-26" value="Записать в буфер значение передачи" style="rounded=1;whiteSpace=wrap;html=1;labelBackgroundColor=none;" vertex="1" parent="1">
          <mxGeometry x="1200" y="280" width="120" height="80" as="geometry" />
        </mxCell>
        <mxCell id="LHh5Y7pQnVomNMw54WkH-27" value="Цикл Инициализации" style="rounded=1;whiteSpace=wrap;html=1;labelBackgroundColor=none;" vertex="1" parent="1">
          <mxGeometry x="1040" y="720" width="120" height="80" as="geometry" />
        </mxCell>
        <mxCell id="LHh5Y7pQnVomNMw54WkH-28" value="Ожидание" style="rounded=1;whiteSpace=wrap;html=1;labelBackgroundColor=none;" vertex="1" parent="1">
          <mxGeometry x="1040" y="840" width="120" height="80" as="geometry" />
        </mxCell>
        <mxCell id="LHh5Y7pQnVomNMw54WkH-29" value="Основная работа" style="rounded=1;whiteSpace=wrap;html=1;labelBackgroundColor=none;" vertex="1" parent="1">
          <mxGeometry x="800" y="440" width="120" height="80" as="geometry" />
        </mxCell>
        <mxCell id="LHh5Y7pQnVomNMw54WkH-30" style="edgeStyle=orthogonalEdgeStyle;rounded=0;orthogonalLoop=1;jettySize=auto;html=1;exitX=1;exitY=0.75;exitDx=0;exitDy=0;entryX=0.917;entryY=0.745;entryDx=0;entryDy=0;entryPerimeter=0;" edge="1" parent="1" source="LHh5Y7pQnVomNMw54WkH-27" target="LHh5Y7pQnVomNMw54WkH-27">
          <mxGeometry relative="1" as="geometry" />
        </mxCell>
      </root>
    </mxGraphModel>
  </diagram>
</mxfile>
